<?xml version="1.0" standalone="no"?>
<!DOCTYPE svg PUBLIC "-//W3C//DTD SVG 20010904//EN"
 "http://www.w3.org/TR/2001/REC-SVG-20010904/DTD/svg10.dtd">
<svg version="1.0" xmlns="http://www.w3.org/2000/svg"
 width="1000.000000pt" height="1000.000000pt" viewBox="0 0 1000.000000 1000.000000"
 preserveAspectRatio="xMidYMid meet">
<metadata>
Created by potrace 1.14, written by Peter Selinger 2001-2017
</metadata>
<g transform="translate(0.000000,1000.000000) scale(0.100000,-0.100000)"
fill="#000000" stroke="none">
<path d="M4570 9509 c-41 -11 -100 -26 -130 -34 -30 -8 -266 -67 -525 -130
-713 -175 -725 -178 -725 -185 0 -3 33 -18 73 -32 104 -37 194 -71 542 -203
171 -65 355 -135 410 -155 55 -20 130 -49 166 -64 36 -14 69 -26 73 -26 5 0
22 -6 39 -14 18 -8 95 -38 172 -66 77 -29 214 -81 305 -115 369 -141 496 -188
525 -195 17 -4 134 -38 260 -75 127 -37 254 -73 284 -81 29 -8 57 -17 62 -20
5 -3 17 -7 28 -9 10 -2 65 -17 121 -34 57 -17 108 -31 114 -31 6 0 -5 14 -24
31 -19 17 -64 56 -99 87 -36 32 -108 95 -161 142 -52 47 -129 114 -169 150
-41 36 -82 72 -90 80 -9 8 -52 47 -97 85 -119 104 -408 358 -414 365 -3 3 -99
89 -215 190 -115 101 -215 189 -221 195 -6 5 -26 23 -45 39 -19 16 -58 51 -87
78 -31 28 -63 48 -75 47 -12 0 -56 -9 -97 -20z"/>
<path d="M5330 9526 c0 -4 482 -551 880 -996 213 -239 441 -496 568 -640 80
-91 159 -178 176 -194 28 -26 261 -250 565 -543 58 -56 107 -100 108 -99 3 2
0 11 -119 321 -44 116 -105 275 -135 355 -30 80 -74 195 -98 255 -23 61 -106
279 -184 485 -78 206 -146 384 -152 395 -5 11 -27 67 -48 125 -66 177 -66 177
-103 184 -18 3 -42 8 -53 10 -22 5 -714 177 -810 202 -33 8 -71 17 -83 20 -13
3 -87 21 -165 40 -155 38 -150 37 -222 54 -62 15 -74 18 -102 26 -13 3 -23 4
-23 0z"/>
<path d="M2590 8848 c-14 -13 -59 -52 -100 -88 -41 -36 -84 -74 -96 -85 -11
-11 -36 -33 -55 -49 -32 -28 -180 -159 -205 -181 -6 -5 -41 -37 -78 -70 -38
-33 -78 -69 -90 -80 -13 -11 -38 -33 -57 -50 -71 -62 -204 -180 -209 -185 -3
-3 -58 -52 -122 -109 -65 -57 -118 -105 -118 -108 0 -3 17 -2 38 1 20 3 60 8
87 11 28 3 86 10 130 16 44 6 96 12 115 14 34 4 186 22 245 30 17 2 51 7 78
10 65 7 84 9 492 60 198 24 383 46 410 50 28 3 61 7 75 9 14 3 52 7 85 11 33
3 74 8 90 11 60 8 111 14 165 19 30 3 65 7 76 9 12 3 48 7 80 11 33 4 70 9 84
11 14 2 50 6 80 9 30 4 89 13 130 22 41 8 86 17 100 19 14 3 79 16 145 30 66
14 131 27 145 29 14 2 59 11 100 20 41 9 86 19 100 21 157 30 292 62 280 67
-14 6 -323 83 -365 91 -11 2 -76 18 -145 35 -69 18 -134 33 -145 36 -11 2 -85
20 -165 40 -286 71 -569 139 -624 151 -10 2 -33 8 -50 13 -17 6 -42 12 -56 15
-14 2 -45 9 -70 16 -25 7 -52 13 -60 15 -8 2 -71 17 -140 34 -69 18 -134 33
-145 36 -11 2 -35 8 -52 14 -18 5 -33 8 -33 6 0 -3 -11 0 -25 5 -14 5 -36 12
-48 14 -12 2 -29 7 -37 10 -8 4 -26 -4 -40 -16z"/>
<path d="M7393 8847 c4 -11 10 -31 13 -45 3 -15 9 -43 15 -62 12 -46 89 -359
95 -385 2 -11 65 -265 140 -565 74 -300 137 -553 139 -563 2 -10 7 -27 10 -37
3 -10 8 -28 10 -39 3 -12 7 -30 9 -41 3 -11 26 -105 51 -208 26 -103 48 -194
50 -202 21 -96 80 -287 201 -650 134 -400 160 -473 161 -438 0 7 3 42 7 78 5
36 10 81 12 100 2 19 6 51 9 70 5 34 8 62 20 165 2 28 7 66 10 85 2 19 7 56
10 83 11 99 16 144 25 217 5 41 12 100 15 130 3 30 7 64 9 75 2 11 7 49 11 85
4 36 8 72 10 80 1 8 6 47 9 85 4 39 9 81 11 95 2 14 7 48 10 75 10 88 16 139
20 171 2 17 7 57 10 90 3 32 8 66 10 74 2 8 6 44 10 80 3 36 8 76 10 90 3 14
7 50 10 80 3 30 10 91 16 135 l11 79 -44 41 c-24 22 -80 71 -124 110 -43 38
-97 86 -119 106 -22 20 -125 112 -230 204 -256 227 -326 289 -480 425 -97 86
-132 117 -149 130 -18 14 -19 13 -13 -3z"/>
<path d="M3259 7856 c-2 -3 -16 -7 -29 -10 -14 -2 -53 -12 -87 -21 -35 -9 -71
-18 -80 -20 -10 -2 -47 -12 -83 -20 -36 -9 -72 -18 -80 -20 -8 -2 -224 -56
-480 -119 -256 -64 -474 -118 -485 -120 -11 -2 -66 -16 -121 -30 -56 -15 -110
-29 -120 -31 -11 -2 -150 -37 -311 -77 l-292 -72 -22 -56 c-12 -30 -28 -68
-35 -85 -30 -72 -492 -1300 -489 -1303 1 -1 111 73 244 165 133 92 249 173
258 178 9 6 24 15 32 22 13 10 411 285 481 333 8 5 57 39 109 75 51 36 139 97
195 136 55 38 169 116 251 174 83 57 202 139 265 182 93 63 263 194 395 304
55 46 314 257 340 277 17 13 50 41 75 62 25 21 56 47 70 59 14 11 20 20 14 21
-6 0 -13 -2 -15 -4z"/>
<path d="M4790 7743 c-25 -14 -135 -77 -245 -141 -110 -63 -240 -138 -290
-167 -49 -28 -178 -102 -285 -164 -107 -62 -211 -122 -230 -133 -129 -74 -710
-409 -775 -448 -44 -26 -98 -57 -120 -69 -22 -12 -58 -33 -80 -46 -22 -14 -50
-30 -63 -35 -15 -6 -20 -15 -16 -22 8 -13 284 -359 294 -368 3 -3 62 -75 130
-160 69 -85 130 -162 137 -170 6 -8 51 -63 99 -122 47 -60 89 -108 93 -108 3
0 225 219 492 488 528 529 493 488 545 652 9 30 19 60 23 65 3 6 6 15 7 20 1
6 12 37 24 70 12 33 41 116 65 185 24 69 73 211 110 315 86 244 134 385 132
385 -1 -1 -22 -12 -47 -27z"/>
<path d="M5097 7612 c-32 -86 -62 -166 -67 -177 -14 -30 -118 -299 -147 -380
-14 -38 -29 -74 -34 -79 -5 -6 -9 -20 -9 -33 0 -13 -5 -23 -12 -23 -6 0 -9 -3
-6 -6 5 -5 -21 -79 -52 -149 -21 -49 -42 -116 -38 -121 5 -4 382 -108 435
-120 12 -2 88 -22 170 -45 81 -22 157 -42 169 -45 12 -2 137 -35 278 -74 141
-38 267 -70 279 -70 12 0 78 11 147 25 69 13 139 26 155 29 42 8 219 41 350
66 61 11 121 22 135 25 14 2 50 10 80 16 30 6 68 13 85 15 16 2 37 6 45 9 8 2
33 7 55 10 22 4 47 8 55 10 8 3 31 7 50 10 114 19 139 -2 -296 250 -219 127
-403 232 -408 234 -6 2 -40 22 -76 44 -36 22 -83 50 -105 62 -22 12 -91 52
-154 88 -62 37 -115 67 -117 67 -1 0 -55 32 -120 70 -64 39 -118 70 -119 70
-2 0 -36 19 -77 43 -40 24 -93 55 -118 69 -67 38 -302 174 -341 197 -40 24
-127 71 -131 71 -2 0 -29 -71 -61 -158z"/>
<path d="M8905 7290 c-3 -14 -19 -79 -35 -145 -16 -66 -38 -158 -50 -205 -12
-47 -23 -95 -26 -106 -2 -12 -29 -122 -59 -245 -49 -198 -60 -244 -71 -284 -1
-5 -10 -41 -19 -80 -22 -90 -19 -79 -55 -225 -18 -69 -34 -136 -36 -150 -3
-14 -8 -34 -11 -45 -7 -21 -8 -26 -16 -65 -3 -14 -15 -63 -27 -110 -12 -47
-23 -92 -25 -100 -2 -8 -11 -44 -20 -80 -9 -36 -19 -73 -20 -83 -2 -9 -11 -45
-20 -80 -9 -34 -19 -75 -22 -92 -3 -16 -9 -38 -14 -47 -5 -10 -8 -18 -5 -18 2
0 -6 -39 -19 -87 -13 -49 -28 -123 -35 -166 -6 -43 -13 -88 -15 -100 -2 -12
-6 -38 -9 -57 -3 -19 -17 -102 -31 -185 -15 -82 -26 -157 -27 -165 0 -8 -4
-33 -8 -55 -5 -22 -11 -60 -15 -85 -3 -25 -8 -56 -10 -70 -5 -29 -12 -68 -21
-125 -6 -40 20 -5 246 325 6 8 70 102 143 207 72 106 218 317 322 469 105 153
228 333 275 400 47 68 132 192 189 275 l103 151 -22 61 c-12 34 -28 76 -35 92
-7 17 -88 230 -181 475 -312 827 -312 827 -319 800z"/>
<path d="M2119 6707 c-13 -12 -65 -58 -114 -101 -50 -44 -99 -89 -111 -100
-11 -12 -45 -41 -74 -66 -29 -25 -62 -54 -74 -65 -12 -11 -55 -49 -96 -85 -40
-36 -88 -78 -106 -95 -17 -16 -54 -49 -80 -72 -27 -23 -68 -59 -91 -80 -23
-21 -67 -60 -99 -88 -31 -27 -69 -61 -84 -75 -15 -14 -58 -52 -95 -85 -38 -33
-78 -69 -91 -80 -12 -11 -50 -45 -84 -75 -35 -30 -75 -66 -90 -80 -15 -14 -58
-52 -94 -85 -37 -32 -78 -68 -90 -80 -13 -11 -59 -51 -104 -90 l-80 -70 4 -50
c3 -27 9 -81 14 -120 5 -38 12 -91 15 -117 10 -91 16 -143 21 -168 2 -14 6
-54 10 -90 3 -36 8 -72 9 -81 2 -9 6 -40 10 -70 3 -30 8 -71 10 -91 3 -21 7
-55 10 -75 2 -21 7 -63 10 -93 3 -30 8 -62 10 -70 2 -8 6 -46 10 -83 3 -37 8
-77 10 -87 2 -10 6 -45 10 -77 3 -32 8 -69 10 -83 5 -36 18 -152 19 -172 0
-10 1 -18 2 -18 1 0 17 28 34 63 59 113 132 251 170 322 20 39 72 138 115 220
43 83 97 186 120 230 23 44 75 143 115 220 40 77 90 172 110 210 20 39 77 147
125 240 48 94 102 195 119 225 17 30 31 57 31 60 1 6 31 64 86 166 84 158 122
238 209 444 50 118 95 224 100 235 31 69 169 400 167 402 -2 1 -14 -8 -28 -20z"/>
<path d="M7437 6243 c-1 -1 -25 -5 -52 -8 -28 -4 -52 -8 -55 -10 -3 -2 -30 -6
-60 -10 -30 -3 -62 -8 -70 -10 -8 -2 -35 -7 -60 -10 -25 -3 -101 -15 -170 -26
-69 -11 -138 -22 -155 -25 -16 -2 -41 -6 -55 -9 -14 -2 -43 -7 -65 -10 -23 -3
-50 -7 -62 -9 -11 -3 -38 -7 -59 -10 -52 -8 -115 -18 -134 -21 -18 -3 -122
-19 -132 -19 -3 -1 -9 -4 -13 -8 -7 -7 -2 -26 160 -628 58 -217 108 -402 110
-410 2 -8 20 -78 40 -155 l37 -139 116 -136 c64 -74 121 -140 127 -146 14 -16
33 -38 300 -348 132 -153 252 -293 267 -310 l27 -31 1 50 c0 39 1 2181 0 2397
0 41 -3 47 -20 45 -12 -1 -22 -2 -23 -4z"/>
<path d="M2520 6205 c-3 -152 0 -2448 2 -2450 2 -2 41 3 88 11 47 7 103 16
125 19 22 3 47 8 55 10 8 2 40 7 70 10 30 4 73 10 95 15 22 5 65 11 95 15 30
3 62 8 70 10 8 2 33 7 55 10 22 3 126 19 230 36 105 17 206 33 225 35 72 8 82
13 77 37 -2 12 -72 274 -155 582 -83 308 -161 598 -173 645 -21 84 -23 87
-138 220 -64 74 -120 140 -126 146 -5 6 -30 35 -55 64 -25 29 -50 58 -55 64
-6 6 -62 72 -125 146 -63 74 -120 140 -126 145 -6 6 -48 55 -95 110 -46 55
-96 114 -111 130 l-28 30 0 -40z"/>
<path d="M4115 5620 c-8 -3 134 -65 316 -139 296 -120 360 -142 617 -211 158
-43 297 -80 309 -82 14 -2 36 9 60 28 21 18 138 112 260 210 122 99 221 183
220 188 -2 9 -1756 15 -1782 6z"/>
<path d="M4010 5475 c0 -6 49 -94 80 -145 5 -8 42 -71 81 -140 137 -239 262
-456 332 -575 75 -130 96 -165 136 -236 76 -135 276 -477 278 -476 1 1 -4 43
-12 92 -7 50 -16 114 -19 144 -4 30 -9 64 -11 75 -2 12 -7 41 -10 66 -3 25 -7
54 -9 65 -2 11 -7 47 -10 80 -4 33 -9 67 -11 75 -2 8 -6 38 -10 65 -5 45 -81
350 -90 365 -2 4 -7 20 -10 36 -3 16 -12 54 -21 84 -8 30 -19 71 -24 90 -22
92 -22 92 -96 121 -38 15 -177 69 -309 119 -132 51 -246 95 -252 97 -7 3 -13
2 -13 -2z"/>
<path d="M5980 5474 c0 -5 -12 -17 -27 -26 -16 -9 -37 -25 -48 -35 -11 -10
-90 -72 -175 -138 -293 -227 -331 -259 -553 -483 l-209 -210 11 -53 c5 -30 13
-72 16 -94 3 -22 7 -51 10 -65 2 -14 7 -43 10 -65 6 -51 16 -114 21 -140 9
-41 37 -231 38 -247 1 -28 10 -21 32 20 11 20 61 107 111 192 49 85 134 232
188 325 108 187 109 188 187 325 31 52 102 176 160 276 58 100 108 187 112
195 4 8 12 23 19 34 65 108 108 188 103 193 -3 3 -6 1 -6 -4z"/>
<path d="M9530 5224 c0 -5 -22 -32 -48 -60 -26 -28 -74 -82 -107 -120 -33 -37
-69 -78 -80 -90 -11 -12 -42 -48 -70 -80 -27 -31 -59 -67 -70 -79 -11 -11 -51
-56 -90 -100 -38 -44 -74 -85 -80 -91 -5 -6 -35 -40 -65 -74 -30 -35 -59 -68
-65 -74 -6 -6 -49 -54 -94 -106 -114 -130 -203 -231 -221 -250 -8 -9 -44 -50
-80 -91 -35 -41 -81 -92 -101 -114 -20 -22 -59 -65 -85 -96 -46 -52 -156 -176
-199 -224 -40 -45 -130 -149 -147 -169 -24 -28 -3 -1 -283 -376 -137 -184
-258 -344 -267 -354 -10 -11 -18 -24 -18 -29 0 -7 44 14 305 153 39 20 124 65
190 100 66 34 143 75 170 90 49 27 143 76 370 195 61 32 146 77 190 100 181
96 256 136 385 203 74 39 178 94 230 122 52 28 107 57 123 63 15 6 27 16 28
22 0 5 2 19 4 30 2 11 7 47 11 80 3 33 8 69 10 80 2 11 6 44 9 75 3 31 7 66
10 78 2 13 7 53 11 90 3 36 8 75 10 87 2 11 6 43 9 70 3 28 8 68 11 90 3 22 7
54 8 71 2 17 7 56 10 85 14 113 16 125 21 164 2 22 18 150 35 284 16 134 28
247 25 249 -3 3 -5 1 -5 -4z"/>
<path d="M1635 5113 c-20 -54 -41 -107 -46 -118 -5 -11 -22 -56 -38 -100 -47
-129 -310 -828 -320 -850 -8 -17 -66 -170 -141 -375 -9 -25 -20 -52 -23 -60
-11 -28 -186 -495 -189 -506 -2 -8 770 -1141 864 -1267 22 -29 15 2444 -7
2628 -2 17 -6 66 -10 110 -3 44 -8 100 -10 125 -2 25 -7 83 -10 130 -4 47 -8
101 -10 120 -8 82 -18 226 -17 243 0 9 -1 17 -3 17 -1 0 -19 -44 -40 -97z"/>
<path d="M6069 3923 c-268 -269 -490 -497 -494 -508 -5 -11 -9 -24 -11 -30 -2
-11 -52 -151 -61 -175 -4 -8 -7 -17 -8 -20 -1 -3 -4 -12 -7 -20 -17 -51 -48
-139 -110 -315 -38 -110 -73 -211 -78 -225 -17 -51 -128 -366 -135 -384 -5
-11 -5 -17 1 -14 82 48 687 396 709 408 68 39 560 323 589 340 17 11 67 39
111 65 44 25 105 60 136 78 31 17 180 104 332 191 186 108 274 163 269 172 -7
11 -478 596 -660 818 -45 56 -85 102 -90 104 -4 1 -226 -217 -493 -485z"/>
<path d="M3889 3706 c-2 -2 -20 -6 -39 -9 -38 -6 -432 -80 -675 -127 -138 -27
-337 -64 -401 -76 -106 -19 -135 4 337 -269 238 -138 460 -265 493 -284 34
-18 72 -40 86 -49 14 -9 34 -22 45 -28 42 -23 102 -57 160 -91 33 -19 67 -38
75 -43 8 -5 122 -71 254 -147 131 -76 257 -149 280 -162 22 -12 66 -38 96 -56
30 -18 78 -45 105 -60 28 -15 69 -38 92 -52 23 -13 44 -20 47 -15 3 5 69 175
147 378 77 203 161 421 185 484 25 63 57 145 71 183 14 37 24 70 21 72 -4 5
-383 108 -438 120 -8 2 -141 38 -295 80 -154 42 -289 78 -300 80 -11 3 -78 20
-149 40 -114 31 -185 42 -197 31z"/>
<path d="M1953 3633 c3 -5 8 -39 11 -78 4 -38 11 -98 16 -131 6 -34 12 -82 15
-107 5 -50 7 -65 35 -287 10 -85 22 -177 25 -205 7 -67 16 -134 20 -165 2 -14
7 -52 10 -85 4 -33 8 -71 10 -85 2 -14 7 -45 10 -70 3 -25 16 -135 30 -245 14
-110 27 -218 30 -240 3 -22 12 -96 20 -165 9 -69 17 -138 19 -155 3 -16 10
-73 16 -126 l12 -95 91 -47 c51 -26 137 -71 192 -100 55 -29 165 -87 245 -129
80 -42 190 -99 245 -128 55 -29 132 -69 170 -90 39 -21 124 -66 190 -100 66
-35 144 -76 174 -92 30 -15 56 -28 58 -28 4 0 -142 286 -207 405 -15 28 -60
113 -100 190 -40 77 -85 163 -100 190 -15 28 -55 104 -90 170 -35 66 -102 194
-150 285 -48 91 -115 219 -150 285 -35 66 -80 152 -100 190 -21 39 -63 120
-95 180 -119 228 -119 227 -360 613 -39 62 -98 155 -224 352 -35 55 -66 100
-68 100 -2 0 -2 -3 0 -7z"/>
<path d="M9046 3065 c-33 -14 -63 -25 -68 -25 -4 0 -27 -9 -51 -19 -23 -11
-114 -47 -202 -80 -88 -33 -221 -83 -295 -111 -74 -29 -162 -62 -195 -75 -85
-31 -777 -294 -795 -302 -8 -3 -42 -16 -75 -28 -210 -79 -498 -190 -540 -210
-27 -13 -104 -49 -170 -80 -66 -31 -147 -70 -180 -85 -33 -16 -123 -58 -200
-95 -77 -37 -173 -82 -212 -101 -40 -18 -73 -35 -73 -37 0 -3 2208 -1 2247 2
6 1 21 17 33 36 12 20 27 41 33 48 7 6 39 52 72 101 33 49 81 119 106 155 67
98 240 348 291 422 25 35 71 102 103 149 32 47 88 128 124 180 96 138 122 180
114 180 -5 -1 -35 -12 -67 -25z"/>
<path d="M2945 2369 c15 -25 249 -364 255 -369 3 -3 17 -23 30 -45 13 -22 28
-44 33 -50 8 -9 51 -71 272 -390 42 -60 125 -180 184 -265 155 -223 215 -311
368 -532 l135 -196 775 0 c426 0 773 2 771 4 -2 1 -19 14 -38 27 -19 13 -123
84 -230 158 -107 75 -240 166 -295 204 -518 356 -756 520 -845 581 -58 40
-175 121 -260 179 -85 59 -195 134 -245 169 -82 56 -157 102 -285 174 -25 14
-109 63 -188 108 -79 46 -147 84 -152 84 -6 0 -10 5 -10 10 0 6 -4 10 -10 10
-7 0 -87 45 -264 148 -5 3 -6 -1 -1 -9z"/>
<path d="M4397 1719 c10 -8 162 -88 568 -299 138 -72 315 -164 430 -225 44
-23 143 -75 220 -115 217 -113 359 -187 490 -255 66 -35 158 -83 205 -107 l85
-44 45 24 c75 40 279 146 395 207 103 54 181 95 380 200 44 23 139 73 210 110
277 145 320 168 328 175 5 4 -20 11 -55 14 -34 4 -79 9 -98 11 -82 10 -128 16
-170 21 -25 2 -79 9 -120 14 -41 5 -102 12 -134 16 -33 3 -67 7 -75 9 -9 2
-45 6 -81 10 -36 3 -76 8 -90 10 -64 10 -186 25 -240 30 -19 2 -60 6 -90 10
-56 7 -79 10 -160 20 -99 12 -130 16 -255 30 -71 9 -147 18 -167 20 -21 3 -55
7 -75 10 -21 2 -78 9 -128 15 -49 6 -106 12 -125 15 -305 38 -338 41 -575 50
-82 3 -195 8 -250 10 -55 2 -170 7 -255 10 -85 4 -170 7 -188 9 -17 1 -29 -1
-25 -5z"/>
</g>
</svg>
